<?xml version="1.0" standalone="no"?>
<!DOCTYPE svg PUBLIC "-//W3C//DTD SVG 20010904//EN"
 "http://www.w3.org/TR/2001/REC-SVG-20010904/DTD/svg10.dtd">
<svg version="1.0" xmlns="http://www.w3.org/2000/svg"
 width="512.000000pt" height="512.000000pt" viewBox="0 0 512.000000 512.000000"
 preserveAspectRatio="xMidYMid meet">
<metadata>
Created by potrace 1.14, written by Peter Selinger 2001-2017
</metadata>
<g transform="translate(0.000000,512.000000) scale(0.100000,-0.100000)"
fill="#000000" stroke="none">
<path d="M2578 5106 c-1 -2 -68 -6 -148 -9 -80 -4 -154 -8 -165 -11 -11 -2
-42 -7 -70 -10 -359 -48 -760 -203 -1069 -414 -562 -385 -949 -973 -1071
-1627 -19 -99 -20 -108 -32 -210 -10 -86 -10 -433 0 -534 16 -168 74 -417 137
-591 41 -114 37 -105 118 -270 145 -296 360 -573 612 -791 107 -92 276 -214
375 -269 125 -70 170 -93 260 -133 583 -257 1250 -288 1850 -85 50 16 104 36
122 44 17 8 34 14 37 14 3 0 53 22 110 49 729 343 1256 1010 1415 1793 37 180
46 278 46 508 0 218 -7 299 -41 480 -92 493 -346 969 -709 1324 -65 64 -151
139 -273 237 -97 79 -355 226 -502 288 -58 24 -112 47 -120 51 -9 4 -67 24
-130 43 -203 63 -411 102 -610 112 -63 4 -120 8 -127 10 -6 2 -13 2 -15 1z"/>
</g>
</svg>
