<?xml version="1.0" standalone="no"?>
<!DOCTYPE svg PUBLIC "-//W3C//DTD SVG 20010904//EN"
 "http://www.w3.org/TR/2001/REC-SVG-20010904/DTD/svg10.dtd">
<svg version="1.0" xmlns="http://www.w3.org/2000/svg"
 width="512.000000pt" height="512.000000pt" viewBox="0 0 512.000000 512.000000"
 preserveAspectRatio="xMidYMid meet">
<metadata>
Created by potrace 1.14, written by Peter Selinger 2001-2017
</metadata>
<g transform="translate(0.000000,512.000000) scale(0.100000,-0.100000)"
fill="#000000" stroke="none">
<path d="M2300 5109 c-226 -25 -476 -86 -676 -165 -771 -304 -1348 -960 -1547
-1759 -59 -236 -72 -348 -72 -625 0 -277 13 -389 72 -625 228 -913 945 -1630
1858 -1858 236 -59 348 -72 625 -72 277 0 389 13 625 72 913 228 1630 945
1858 1858 59 236 72 348 72 625 0 277 -13 389 -72 625 -205 821 -809 1491
-1608 1783 -130 47 -358 105 -505 127 -125 20 -507 28 -630 14z m1040 -1101
l-1 -308 328 -2 328 -3 3 -1387 c2 -1090 -1 -1394 -10 -1424 -7 -20 -26 -47
-41 -58 l-28 -21 -1359 0 -1359 0 -28 21 c-15 11 -33 36 -40 55 -15 44 -18
3294 -3 3350 12 44 38 69 82 79 18 4 505 7 1081 6 l1048 -1 -1 -307z"/>
<path d="M2701 3658 c-72 -181 -461 -1189 -461 -1192 0 -10 163 -67 170 -59 7
7 470 1196 470 1206 0 5 -155 67 -166 67 -3 0 -8 -10 -13 -22z"/>
<path d="M1940 3245 c-96 -108 -175 -200 -175 -205 0 -5 65 -82 145 -170 80
-89 159 -178 176 -198 l31 -36 62 54 c33 29 61 56 61 60 0 4 -56 69 -125 143
-69 75 -125 140 -125 146 0 6 56 72 125 147 69 74 125 139 125 142 0 7 -115
112 -122 112 -2 0 -82 -88 -178 -195z"/>
<path d="M2936 3385 c-54 -49 -58 -55 -45 -72 7 -10 64 -73 126 -140 62 -67
113 -127 113 -133 0 -6 -56 -72 -125 -147 -69 -74 -125 -139 -125 -143 0 -4
28 -31 61 -60 l62 -54 31 36 c17 20 96 109 176 198 80 88 145 165 145 170 0
10 -347 400 -355 400 -3 -1 -32 -25 -64 -55z"/>
<path d="M2751 1990 c-58 -12 -124 -53 -158 -96 -20 -27 -28 -50 -31 -94 -6
-76 10 -121 60 -165 39 -35 169 -105 196 -105 19 0 106 -46 122 -65 22 -26 17
-75 -11 -96 -30 -23 -118 -25 -158 -4 -26 13 -62 50 -86 88 -9 14 -18 12 -83
-18 l-73 -34 20 -39 c44 -86 155 -152 267 -160 88 -6 159 10 218 50 60 39 87
85 93 158 12 134 -69 224 -257 285 -83 27 -130 53 -142 81 -10 21 -8 28 12 49
19 20 33 25 71 25 63 0 93 -15 115 -56 10 -19 22 -34 27 -34 29 0 157 45 157
55 0 7 -18 35 -41 63 -70 89 -203 136 -318 112z"/>
<path d="M2247 1983 c-4 -3 -7 -143 -7 -310 l0 -303 -39 0 c-31 0 -44 6 -60
26 l-20 26 -60 -43 c-33 -24 -61 -47 -61 -51 0 -17 66 -81 104 -100 29 -15 59
-21 106 -20 76 0 114 13 153 50 62 58 62 57 65 410 l3 322 -89 0 c-49 0 -92
-3 -95 -7z"/>
</g>
</svg>
